<svg id="Layer_1" enable-background="new 0 0 512 512" height="512" viewBox="0 0 512 512" width="512" xmlns="http://www.w3.org/2000/svg"><g><path d="m490 264h-468c-7.732 0-14-6.268-14-14v-36c0-7.732 6.268-14 14-14h468c7.732 0 14 6.268 14 14v36c0 7.732-6.268 14-14 14z" fill="#e48c9b"/><path d="m504 214v36c0 7.73-6.27 14-14 14h-48c7.73 0 14-6.27 14-14v-36c0-7.73-6.27-14-14-14h48c7.73 0 14 6.27 14 14z" fill="#cc5b6f"/><path d="m488 264c-2.058 31.062-.102 1.595-14.51 217.6-.84 12.6-11.31 22.4-23.94 22.4h-104.61c-5.48 0-10.49-3.1-12.94-8-2.457-4.934-7.504-8-12.94-8h-126.12c-5.48 0-10.49 3.1-12.94 8-2.457 4.933-7.504 8-12.94 8h-104.61c-12.63 0-23.1-9.8-23.94-22.4-17.395-260.782-12.424-186.41-14.51-217.6z" fill="#e48c9b"/><path d="m488 264-14.51 217.6c-.84 12.6-11.31 22.4-23.94 22.4h-48c12.63 0 23.1-9.8 23.94-22.4l14.51-217.6z" fill="#cc5b6f"/><path d="m160 200h-56l57.946-173.837c3.615-10.847 13.766-18.163 25.2-18.163 18.117 0 30.938 17.75 25.2 34.963z" fill="#edebfd"/><path d="m213.73 34.52c0 6.126 3.424-5.971-53.73 165.48h-24l52.35-157.04c4.293-12.878-1.819-26.343-13.19-32.1 17.577-8.909 38.57 3.921 38.57 23.66z" fill="#d2d2fc"/><path d="m352 200h56l-57.946-173.837c-3.615-10.847-13.766-18.163-25.2-18.163-18.117 0-30.938 17.75-25.2 34.963z" fill="#edebfd"/><path d="m408 200h-26.27l-57.95-173.84c-2.12-6.37-6.51-11.53-12.08-14.69 14.137-8.12 32.957-1.503 38.35 14.69z" fill="#d2d2fc"/><g fill="#edebfd"><path d="m256 448c-8.809 0-16-7.136-16-16v-104c0-8.837 7.163-16 16-16 8.809 0 16 7.136 16 16v104c0 8.837-7.163 16-16 16z"/><path d="m336.94 448c-9.183 0-16.485-7.729-15.945-16.91l6.121-104.055c.497-8.442 7.488-15.034 15.945-15.034 9.183 0 16.485 7.729 15.945 16.91l-6.121 104.055c-.497 8.442-7.488 15.034-15.945 15.034z"/><path d="m416.94 448c-9.183 0-16.485-7.729-15.945-16.91l6.121-104.055c.497-8.442 7.488-15.034 15.945-15.034 9.183 0 16.485 7.729 15.945 16.91l-6.121 104.055c-.497 8.442-7.488 15.034-15.945 15.034z"/><path d="m175.06 448c9.183 0 16.485-7.729 15.945-16.91l-6.121-104.055c-.496-8.443-7.487-15.035-15.944-15.035-9.183 0-16.485 7.729-15.945 16.91l6.121 104.055c.496 8.443 7.487 15.035 15.944 15.035z"/><path d="m95.06 448c9.183 0 16.485-7.729 15.945-16.91l-6.121-104.055c-.496-8.443-7.487-15.035-15.944-15.035-9.183 0-16.485 7.729-15.945 16.91l6.121 104.055c.496 8.443 7.487 15.035 15.944 15.035z"/></g><path d="m488 264c-.241 3.64-1.172 17.691-1.59 24h-460.81c-.658-9.938-.317-4.823-1.6-24z" fill="#cc5b6f"/><path d="m490 192h-76.234l-56.122-168.367c-8.886-26.658-44.348-32.146-60.828-9.279-6.575 9.122-8.307 20.472-4.751 31.139l48.835 146.507h-169.801l48.836-146.507c7.469-22.408-9.174-45.493-32.789-45.493-14.901 0-28.078 9.498-32.789 23.633l-56.123 168.367h-76.234c-12.131 0-22 9.869-22 22v36c0 10.221 7.006 18.835 16.468 21.295l14.056 210.834c1.117 16.75 15.142 29.871 31.929 29.871h104.603c8.566 0 16.268-4.76 20.1-12.422 1.104-2.207 3.322-3.578 5.789-3.578h126.111c2.468 0 4.686 1.371 5.789 3.578 3.831 7.662 11.532 12.422 20.1 12.422h104.603c16.788 0 30.813-13.121 31.929-29.871l14.056-210.834c9.46-2.46 16.467-11.074 16.467-21.295v-36c0-12.131-9.869-22-22-22zm-182.756-151.567c-4.013-12.035 4.928-24.433 17.61-24.433 8.002 0 15.08 5.101 17.61 12.693l54.436 163.307h-39.135zm-137.709-11.74c4.772-14.317 23.817-17.266 32.67-4.984 3.531 4.899 4.461 10.995 2.551 16.724l-50.522 151.567h-39.134zm295.976 452.372c-.558 8.375-7.57 14.935-15.964 14.935h-104.603c-2.468 0-4.686-1.371-5.789-3.578-3.831-7.662-11.532-12.422-20.1-12.422h-126.111c-8.566 0-16.268 4.76-20.1 12.422-1.104 2.207-3.322 3.578-5.789 3.578h-104.602c-8.394 0-15.406-6.561-15.964-14.936l-13.938-209.064h446.898zm30.489-231.065c0 3.309-2.691 6-6 6-20.501 0-448.048 0-468 0-3.309 0-6-2.691-6-6v-36c0-3.309 2.691-6 6-6h468c3.309 0 6 2.691 6 6z"/><path d="m256 456c13.233 0 24-10.766 24-24v-104c0-13.234-10.767-24-24-24-13.234 0-24 10.766-24 24v104c0 13.234 10.766 24 24 24zm-8-128c0-4.411 3.589-8 8-8s8 3.589 8 8v104c0 4.411-3.589 8-8 8s-8-3.589-8-8z"/><path d="m336.939 456c12.675 0 23.187-9.912 23.932-22.565l6.12-104.055c.809-13.753-10.152-25.38-23.93-25.38-12.675 0-23.187 9.912-23.932 22.565l-6.12 104.055c-.809 13.753 10.152 25.38 23.93 25.38zm-7.958-24.44 6.12-104.055c.248-4.208 3.744-7.505 7.959-7.505 4.574 0 8.23 3.839 7.958 8.44l-6.12 104.055c-.248 4.208-3.744 7.505-7.959 7.505-4.574 0-8.229-3.839-7.958-8.44z"/><path d="m416.939 456c12.675 0 23.187-9.912 23.932-22.565l6.12-104.055c.809-13.753-10.152-25.38-23.93-25.38-12.675 0-23.187 9.912-23.932 22.565l-6.12 104.055c-.809 13.753 10.152 25.38 23.93 25.38zm-7.958-24.44 6.12-104.055c.248-4.208 3.744-7.505 7.959-7.505 4.574 0 8.23 3.839 7.958 8.44l-6.12 104.055c-.248 4.208-3.744 7.505-7.959 7.505-4.574 0-8.229-3.839-7.958-8.44z"/><path d="m151.129 433.435c1.231 20.919 27 30.281 41.373 15.039 4.51-4.783 6.875-11.291 6.49-17.854l-6.121-104.055c-1.231-20.919-27-30.281-41.373-15.039-4.51 4.783-6.875 11.291-6.49 17.854zm12.01-110.932c4.779-5.067 13.349-1.959 13.759 5.001l6.121 104.055c.13 2.214-.636 4.323-2.158 5.938-4.779 5.067-13.349 1.959-13.759-5.001l-6.121-104.055c-.13-2.215.636-4.324 2.158-5.938z"/><path d="m71.129 433.435c1.231 20.919 27 30.281 41.373 15.039 4.51-4.783 6.875-11.291 6.49-17.854l-6.121-104.055c-1.231-20.919-27-30.281-41.373-15.039-4.51 4.783-6.875 11.291-6.49 17.854zm12.01-110.932c4.779-5.067 13.349-1.959 13.759 5.001l6.121 104.055c.13 2.214-.636 4.323-2.158 5.938-4.779 5.067-13.349 1.959-13.759-5.001l-6.121-104.056c-.13-2.214.636-4.323 2.158-5.937z"/></g></svg>